<?xml version="1.0" encoding="UTF-8" standalone="no"?><!-- Generator: Gravit.io --><svg xmlns="http://www.w3.org/2000/svg" xmlns:xlink="http://www.w3.org/1999/xlink" style="isolation:isolate" viewBox="-564.775 502.5 1932.126 566" width="1932.126pt" height="566pt"><g><g><g><path d=" M -557.275 510 L -484.275 510 C -465.525 510 -456.275 522.5 -456.275 538 L -456.275 1061" fill="none" vector-effect="non-scaling-stroke" stroke-width="5" stroke="rgb(70,70,70)" stroke-linejoin="miter" stroke-linecap="square" stroke-miterlimit="3"/><path d=" M -341.275 1061 L -341.275 538 C -341.275 522 -331.941 510 -312.275 510 L 1359.851 510" fill="none" vector-effect="non-scaling-stroke" stroke-width="5" stroke="rgb(70,70,70)" stroke-linejoin="miter" stroke-linecap="square" stroke-miterlimit="3"/><line x1="-176.275" y1="510" x2="-176.275" y2="651" vector-effect="non-scaling-stroke" stroke-width="5" stroke="rgb(70,70,70)" stroke-linejoin="miter" stroke-linecap="square" stroke-miterlimit="3"/><line x1="-1.275" y1="510" x2="-1.275" y2="651" vector-effect="non-scaling-stroke" stroke-width="5" stroke="rgb(70,70,70)" stroke-linejoin="miter" stroke-linecap="square" stroke-miterlimit="3"/><line x1="174.725" y1="510" x2="174.725" y2="651" vector-effect="non-scaling-stroke" stroke-width="5" stroke="rgb(70,70,70)" stroke-linejoin="miter" stroke-linecap="square" stroke-miterlimit="3"/><line x1="349.725" y1="510" x2="349.725" y2="651" vector-effect="non-scaling-stroke" stroke-width="5" stroke="rgb(70,70,70)" stroke-linejoin="miter" stroke-linecap="square" stroke-miterlimit="3"/><line x1="523.725" y1="510" x2="523.725" y2="651" vector-effect="non-scaling-stroke" stroke-width="5" stroke="rgb(70,70,70)" stroke-linejoin="miter" stroke-linecap="square" stroke-miterlimit="3"/><line x1="699.725" y1="510" x2="699.725" y2="651" vector-effect="non-scaling-stroke" stroke-width="5" stroke="rgb(70,70,70)" stroke-linejoin="miter" stroke-linecap="square" stroke-miterlimit="3"/><line x1="874.725" y1="510" x2="874.725" y2="651" vector-effect="non-scaling-stroke" stroke-width="5" stroke="rgb(70,70,70)" stroke-linejoin="miter" stroke-linecap="square" stroke-miterlimit="3"/><line x1="1049.725" y1="510" x2="1049.725" y2="651" vector-effect="non-scaling-stroke" stroke-width="5" stroke="rgb(70,70,70)" stroke-linejoin="miter" stroke-linecap="square" stroke-miterlimit="3"/><line x1="1224.6" y1="510" x2="1224.6" y2="651" vector-effect="non-scaling-stroke" stroke-width="5" stroke="rgb(70,70,70)" stroke-linejoin="miter" stroke-linecap="square" stroke-miterlimit="3"/></g><g><rect x="-455.275" y="1019" width="114" height="8" transform="matrix(1,0,0,1,0,0)" fill="rgb(70,70,70)"/><rect x="-455.275" y="989.902" width="114" height="8" transform="matrix(1,0,0,1,0,0)" fill="rgb(70,70,70)"/><rect x="-455.275" y="959" width="114" height="8" transform="matrix(1,0,0,1,0,0)" fill="rgb(70,70,70)"/><rect x="-455.275" y="929" width="114" height="8" transform="matrix(1,0,0,1,0,0)" fill="rgb(70,70,70)"/><rect x="-455.275" y="898" width="114" height="8" transform="matrix(1,0,0,1,0,0)" fill="rgb(70,70,70)"/><rect x="-455.275" y="869" width="114" height="8" transform="matrix(1,0,0,1,0,0)" fill="rgb(70,70,70)"/><rect x="-455.275" y="838" width="114" height="8" transform="matrix(1,0,0,1,0,0)" fill="rgb(70,70,70)"/><rect x="-455.275" y="809" width="114" height="8" transform="matrix(1,0,0,1,0,0)" fill="rgb(70,70,70)"/><rect x="-455.275" y="780" width="114" height="8" transform="matrix(1,0,0,1,0,0)" fill="rgb(70,70,70)"/><rect x="-455.275" y="751" width="114" height="8" transform="matrix(1,0,0,1,0,0)" fill="rgb(70,70,70)"/><rect x="-455.275" y="722" width="114" height="8" transform="matrix(1,0,0,1,0,0)" fill="rgb(70,70,70)"/><rect x="-455.275" y="691" width="114" height="8" transform="matrix(1,0,0,1,0,0)" fill="rgb(70,70,70)"/></g><rect x="-560.149" y="651" width="1920" height="22" transform="matrix(1,0,0,1,0,0)" fill="rgb(70,70,70)"/></g><g><path d=" M -305.275 562 L -197.275 562 L -222.275 592 L -278.275 592 L -305.275 562 Z " fill="rgb(70,70,70)"/><line x1="-222.275" y1="651" x2="-222.275" y2="584" vector-effect="non-scaling-stroke" stroke-width="4" stroke="rgb(70,70,70)" stroke-linejoin="miter" stroke-linecap="square" stroke-miterlimit="3"/><line x1="-278.275" y1="649" x2="-278.275" y2="581" vector-effect="non-scaling-stroke" stroke-width="4" stroke="rgb(70,70,70)" stroke-linejoin="miter" stroke-linecap="square" stroke-miterlimit="3"/><rect x="-257.275" y="588" width="13" height="61" transform="matrix(1,0,0,1,0,0)" fill="rgb(70,70,70)"/><rect x="-303.275" y="660" width="106" height="51" transform="matrix(1,0,0,1,0,0)" fill="rgb(70,70,70)"/><path d=" M -303.275 660 L -277.275 645 L -225.275 645 L -197.275 660 L -303.275 660 Z " fill="rgb(70,70,70)"/><path d=" M -303.775 711 L -277.775 726 L -225.775 726 L -197.775 711 L -303.775 711 Z " fill="rgb(70,70,70)"/><path d=" M -277.775 726 L -264.275 739 L -238.275 739 L -225.775 726 L -277.775 726 Z " fill="rgb(70,70,70)"/><rect x="-264.275" y="739" width="26" height="21" transform="matrix(1,0,0,1,0,0)" fill="rgb(70,70,70)"/><path d=" M -281.275 760 L -220.275 760 L -236.275 779 L -264.275 779 L -281.275 760 Z " fill="rgb(70,70,70)"/><rect x="-190.275" y="796" width="35" height="39" transform="matrix(1,0,0,1,0,0)" fill="rgb(70,70,70)"/><rect x="-249.275" y="796" width="45" height="26" transform="matrix(1,0,0,1,0,0)" fill="rgb(70,70,70)"/><circle vector-effect="non-scaling-stroke" cx="-204.27481069120995" cy="809" r="13" fill="rgb(70,70,70)"/><rect x="-264.275" y="779" width="28" height="55" transform="matrix(1,0,0,1,0,0)" fill="rgb(70,70,70)"/><rect x="-297.275" y="877" width="244" height="138" transform="matrix(1,0,0,1,0,0)" fill="rgb(70,70,70)"/><path d="M -280.02 862 L -70.52 862 C -60.999 862 -53.27 869.729 -53.27 879.25 L -53.27 982.75 C -53.27 992.271 -60.999 1000 -70.52 1000 L -280.02 1000 C -289.541 1000 -297.27 992.271 -297.27 982.75 L -297.27 879.25 C -297.27 869.729 -289.541 862 -280.02 862 Z" style="stroke:none;fill:#464646;stroke-miterlimit:10;"/><rect x="-148.275" y="818" width="66" height="23" transform="matrix(1,0,0,1,0,0)" fill="rgb(70,70,70)"/><path d="M -136.77 809 L -93.77 809 C -87.423 809 -82.27 814.153 -82.27 820.5 L -82.27 820.5 C -82.27 826.847 -87.423 832 -93.77 832 L -136.77 832 C -143.117 832 -148.27 826.847 -148.27 820.5 L -148.27 820.5 C -148.27 814.153 -143.117 809 -136.77 809 Z" style="stroke:none;fill:#464646;stroke-miterlimit:10;"/><rect x="-286.275" y="1012" width="14" height="49" transform="matrix(1,0,0,1,0,0)" fill="rgb(70,70,70)"/><rect x="-297.275" y="1057" width="35" height="6" transform="matrix(1,0,0,1,0,0)" fill="rgb(70,70,70)"/><rect x="-77.275" y="1013" width="15" height="50" transform="matrix(1,0,0,1,0,0)" fill="rgb(70,70,70)"/><rect x="-87.275" y="1058" width="34" height="5" transform="matrix(1,0,0,1,0,0)" fill="rgb(70,70,70)"/><path d="M -300.69 890 L -50.85 890 C -49.426 890 -48.27 891.156 -48.27 892.58 L -48.27 893.42 C -48.27 894.844 -49.426 896 -50.85 896 L -300.69 896 C -302.114 896 -303.27 894.844 -303.27 893.42 L -303.27 892.58 C -303.27 891.156 -302.114 890 -300.69 890 Z" style="stroke:none;fill:#464646;stroke-miterlimit:10;"/><path d="M -300.69 990.9 L -50.85 990.9 C -49.426 990.9 -48.27 992.056 -48.27 993.48 L -48.27 994.32 C -48.27 995.744 -49.426 996.9 -50.85 996.9 L -300.69 996.9 C -302.114 996.9 -303.27 995.744 -303.27 994.32 L -303.27 993.48 C -303.27 992.056 -302.114 990.9 -300.69 990.9 Z" style="stroke:none;fill:#464646;stroke-miterlimit:10;"/><rect x="-277.275" y="849" width="205" height="18" transform="matrix(1,0,0,1,0,0)" fill="rgb(70,70,70)"/><path d="M -273.77 834 L -76.77 834 C -71.527 834 -67.27 838.257 -67.27 843.5 L -67.27 843.5 C -67.27 848.743 -71.527 853 -76.77 853 L -273.77 853 C -279.013 853 -283.27 848.743 -283.27 843.5 L -283.27 843.5 C -283.27 838.257 -279.013 834 -273.77 834 Z" style="stroke:none;fill:#464646;stroke-miterlimit:10;"/><rect x="-241.275" y="818" width="31" height="24" transform="matrix(1,0,0,1,0,0)" fill="rgb(70,70,70)"/></g><g><rect x="-10.275" y="713" width="245" height="299" transform="matrix(1,0,0,1,0,0)" fill="rgb(70,70,70)"/><rect x="-0.275" y="1009" width="15" height="48" transform="matrix(1,0,0,1,0,0)" fill="rgb(70,70,70)"/><rect x="-11.275" y="1057" width="37" height="6" transform="matrix(1,0,0,1,0,0)" fill="rgb(70,70,70)"/><rect x="255.725" y="605" width="6" height="354" transform="matrix(1,0,0,1,0,0)" fill="rgb(70,70,70)"/><rect x="216.725" y="1009" width="12" height="48" transform="matrix(1,0,0,1,0,0)" fill="rgb(70,70,70)"/><rect x="206.725" y="1057" width="31" height="5" transform="matrix(1,0,0,1,0,0)" fill="rgb(70,70,70)"/><rect x="95.725" y="585" width="33" height="102" transform="matrix(1,0,0,1,0,0)" fill="rgb(70,70,70)"/><rect x="126.725" y="618" width="57" height="15" transform="matrix(1,0,0,1,0,0)" fill="rgb(70,70,70)"/><rect x="196.725" y="642" width="16" height="29" transform="matrix(1,0,0,1,0,0)" fill="rgb(70,70,70)"/><path d=" M 183.725 618 L 183.725 633 C 184.019 632.984 184.309 632.972 184.593 632.965 C 192.225 632.965 196.725 635.25 196.725 642 L 212.725 642 C 212.725 628.375 201.975 618 183.725 618 Z " fill="rgb(70,70,70)"/><rect x="200.725" y="667" width="9" height="32" transform="matrix(1,0,0,1,0,0)" fill="rgb(70,70,70)"/><path d=" M 234.725 714.803 C 216.415 690.457 178.392 679.803 115.725 679.803 C 42.392 679.803 0.781 689.155 -10.275 714.803 L 234.725 714.803 Z " fill="rgb(70,70,70)"/><path d=" M 218.725 1009 C 203.33 1033.347 171.359 1044 118.668 1044 C 57.008 1044 22.021 1034.649 12.725 1009 L 218.725 1009 Z " fill="rgb(70,70,70)"/><rect x="-54.275" y="943" width="9" height="44" transform="matrix(1,0,0,1,0,0)" fill="rgb(70,70,70)"/><rect x="-45.275" y="948" width="6" height="15" transform="matrix(1,0,0,1,0,0)" fill="rgb(70,70,70)"/><rect x="-45.275" y="967" width="6" height="15" transform="matrix(1,0,0,1,0,0)" fill="rgb(70,70,70)"/><rect x="-52.275" y="971" width="52" height="7" transform="matrix(1,0,0,1,0,0)" fill="rgb(70,70,70)"/><rect x="-45.275" y="952" width="42" height="7" transform="matrix(1,0,0,1,0,0)" fill="rgb(70,70,70)"/><rect x="228.725" y="965" width="15" height="22" transform="matrix(1,0,0,1,0,0)" fill="rgb(70,70,70)"/><path d=" M 255.725 959 L 261.725 959 C 261.725 975.797 261.749 980 243.725 980 L 243.725 973 C 255.702 973 255.725 971.367 255.725 959 Z " fill="rgb(70,70,70)"/></g><g><rect x="286.725" y="824" width="17" height="234" transform="matrix(1,0,0,1,0,0)" fill="rgb(70,70,70)"/><rect x="298.725" y="1008" width="206" height="10" transform="matrix(1,0,0,1,0,0)" fill="rgb(70,70,70)"/><rect x="499.725" y="824" width="17" height="234" transform="matrix(1,0,0,1,0,0)" fill="rgb(70,70,70)"/><rect x="277.725" y="1058" width="36" height="5" transform="matrix(1,0,0,1,0,0)" fill="rgb(70,70,70)"/><rect x="490.725" y="1058" width="36" height="5" transform="matrix(1,0,0,1,0,0)" fill="rgb(70,70,70)"/><rect x="277.725" y="636" width="249" height="193" transform="matrix(1,0,0,1,0,0)" fill="rgb(70,70,70)"/><path d=" M 526.725 640 L 277.725 640 C 286.091 617.835 327.101 602.845 400.725 603 C 475.975 603 505.613 615.657 526.725 640 Z " fill="rgb(70,70,70)"/><path d="M 395.43 549 L 408.03 549 C 412.28 549 415.73 552.45 415.73 556.7 L 415.73 602.3 C 415.73 606.55 412.28 610 408.03 610 L 395.43 610 C 391.18 610 387.73 606.55 387.73 602.3 L 387.73 556.7 C 387.73 552.45 391.18 549 395.43 549 Z" style="stroke:none;fill:#464646;stroke-miterlimit:10;"/><rect x="326.725" y="579" width="15" height="31" transform="matrix(1,0,0,1,0,0)" fill="rgb(70,70,70)"/><rect x="361.725" y="543" width="15" height="41" transform="matrix(0,-1,1,0,-194.275,932.725)" fill="rgb(70,70,70)"/><path d=" M 348.725 571 C 343.452 571 341.725 573.961 341.725 579 L 326.725 579 C 326.725 567.211 332.975 556 348.725 556 L 348.725 571 Z " fill="rgb(70,70,70)"/><path d="M 287.85 609 L 294.61 609 C 296.332 609 297.73 610.398 297.73 612.12 L 297.73 627.88 C 297.73 629.602 296.332 631 294.61 631 L 287.85 631 C 286.128 631 284.73 629.602 284.73 627.88 L 284.73 612.12 C 284.73 610.398 286.128 609 287.85 609 Z" style="stroke:none;fill:#464646;stroke-miterlimit:10;"/><path d=" M 255.725 605 L 261.725 605 C 261.725 599.836 268.428 595 274.725 595 C 282.772 595 288.725 600.68 288.725 609 L 293.725 609 C 293.725 597.234 288.186 590 274.725 590 C 264.421 590 255.725 596.461 255.725 605 Z " fill="rgb(70,70,70)"/><path d=" M 380.725 997 L 420.725 997 L 524.725 824 L 277.725 824 L 380.725 997 Z " fill="rgb(70,70,70)"/></g><g><rect x="528.725" y="892" width="52" height="61" transform="matrix(1,0,0,1,0,0)" fill="rgb(70,70,70)"/><path d="M 549.01 914 L 560.45 914 C 571.643 914 580.73 923.087 580.73 934.28 L 580.73 953.72 C 580.73 964.913 571.643 974 560.45 974 L 549.01 974 C 537.817 974 528.73 964.913 528.73 953.72 L 528.73 934.28 C 528.73 923.087 537.817 914 549.01 914 Z" style="stroke:none;fill:#464646;stroke-miterlimit:10;"/><rect x="575.725" y="902" width="23" height="10" transform="matrix(1,0,0,1,0,0)" fill="rgb(70,70,70)"/><rect x="575.725" y="942" width="23" height="10" transform="matrix(1,0,0,1,0,0)" fill="rgb(70,70,70)"/><rect x="544.725" y="857" width="18" height="16" transform="matrix(1,0,0,1,0,0)" fill="rgb(70,70,70)"/><path d=" M 562.725 872 L 580.725 893 L 528.725 893 L 544.725 872 L 562.725 872 Z " fill="rgb(70,70,70)"/><rect x="549.725" y="814" width="10" height="45" transform="matrix(1,0,0,1,0,0)" fill="rgb(70,70,70)"/><rect x="516.225" y="780.5" width="10" height="45" transform="matrix(0,1,-1,0,1324.225,281.775)" fill="rgb(70,70,70)"/><path d=" M 543.725 798 C 555.866 798 559.725 803.813 559.725 814 L 549.725 814 C 549.725 808.945 548.342 808 543.725 808 L 543.725 798 Z " fill="rgb(70,70,70)"/><rect x="596.725" y="886" width="175" height="120" transform="matrix(1,0,0,1,0,0)" fill="rgb(70,70,70)"/><rect x="596.725" y="880" width="20" height="16" transform="matrix(1,0,0,1,0,0)" fill="rgb(70,70,70)"/><rect x="752.725" y="867" width="19" height="23" transform="matrix(1,0,0,1,0,0)" fill="rgb(70,70,70)"/><rect x="627.725" y="880" width="8" height="10" transform="matrix(1,0,0,1,0,0)" fill="rgb(70,70,70)"/><rect x="645.725" y="880" width="8" height="10" transform="matrix(1,0,0,1,0,0)" fill="rgb(70,70,70)"/><rect x="662.725" y="880" width="8" height="10" transform="matrix(1,0,0,1,0,0)" fill="rgb(70,70,70)"/><rect x="679.725" y="880" width="8" height="10" transform="matrix(1,0,0,1,0,0)" fill="rgb(70,70,70)"/><rect x="696.725" y="880" width="8" height="10" transform="matrix(1,0,0,1,0,0)" fill="rgb(70,70,70)"/><rect x="713.725" y="880" width="8" height="10" transform="matrix(1,0,0,1,0,0)" fill="rgb(70,70,70)"/><rect x="730.725" y="880" width="8" height="10" transform="matrix(1,0,0,1,0,0)" fill="rgb(70,70,70)"/><rect x="596.725" y="1002" width="14" height="57" transform="matrix(1,0,0,1,0,0)" fill="rgb(70,70,70)"/><rect x="757.725" y="1002" width="14" height="57" transform="matrix(1,0,0,1,0,0)" fill="rgb(70,70,70)"/><rect x="587.225" y="1059" width="33.5" height="4" transform="matrix(1,0,0,1,0,0)" fill="rgb(70,70,70)"/><rect x="748.225" y="1059" width="33.5" height="4" transform="matrix(1,0,0,1,0,0)" fill="rgb(70,70,70)"/><rect x="771.725" y="838" width="36" height="8" transform="matrix(1,0,0,1,0,0)" fill="rgb(70,70,70)"/><rect x="742.225" y="869.5" width="37" height="8" transform="matrix(0,1,-1,0,1634.225,112.775)" fill="rgb(70,70,70)"/><path d=" M 764.725 856 C 764.725 849.727 766.241 846 771.725 846 L 771.725 838 C 761.881 838 756.725 846.422 756.725 856 L 764.725 856 Z " fill="rgb(70,70,70)"/></g><g><rect x="807.725" y="729.082" width="239" height="279.956" transform="matrix(1,0,0,1,0,0)" fill="rgb(70,70,70)"/><path d=" M 1046.725 730.771 C 1028.863 707.975 991.771 698 930.639 698 C 859.102 698 818.51 706.756 807.725 730.771 L 1046.725 730.771 Z " fill="rgb(70,70,70)"/><path d=" M 1031.117 1006.229 C 1016.098 1029.025 984.911 1039 933.51 1039 C 873.36 1039 839.23 1030.244 830.162 1006.229 L 1031.117 1006.229 Z " fill="rgb(70,70,70)"/><rect x="819.725" y="1007" width="15" height="52" transform="matrix(1,0,0,1,0,0)" fill="rgb(70,70,70)"/><rect x="810.725" y="1059" width="35" height="4" transform="matrix(1,0,0,1,0,0)" fill="rgb(70,70,70)"/><rect x="1021.725" y="1003" width="16" height="58" transform="matrix(1,0,0,1,0,0)" fill="rgb(70,70,70)"/><rect x="1014.725" y="1059" width="30" height="5" transform="matrix(1,0,0,1,0,0)" fill="rgb(70,70,70)"/><rect x="1043.725" y="985" width="11" height="24.038" transform="matrix(1,0,0,1,0,0)" fill="rgb(70,70,70)"/><rect x="1041.725" y="946" width="13" height="23" transform="matrix(1,0,0,1,0,0)" fill="rgb(70,70,70)"/><rect x="832.725" y="681" width="8" height="32" transform="matrix(1,0,0,1,0,0)" fill="rgb(70,70,70)"/><rect x="828.225" y="664" width="18.5" height="27" transform="matrix(1,0,0,1,0,0)" fill="rgb(70,70,70)"/><path d=" M 911.725 639 L 911.725 663 L 824.725 663 C 824.725 651.375 833.225 639 848.725 639 L 911.725 639 Z " fill="rgb(70,70,70)"/><rect x="912.725" y="606" width="32" height="98" transform="matrix(1,0,0,1,0,0)" fill="rgb(70,70,70)"/><path d="M 928.23 525 L 928.23 525 C 934.577 525 939.73 530.153 939.73 536.5 L 939.73 613.5 C 939.73 619.847 934.577 625 928.23 625 L 928.23 625 C 921.883 625 916.73 619.847 916.73 613.5 L 916.73 536.5 C 916.73 530.153 921.883 525 928.23 525 Z" style="stroke:none;fill:#464646;stroke-miterlimit:10;"/><rect x="934.725" y="549" width="31" height="6" transform="matrix(1,0,0,1,0,0)" fill="rgb(70,70,70)"/><rect x="966.725" y="557" width="8" height="6" transform="matrix(0,1,-1,0,1530.725,-410.725)" fill="rgb(70,70,70)"/><path d=" M 965.725 549 C 971.35 549 973.725 551.875 973.725 556 L 967.725 556 C 967.725 555.391 966.78 555 965.725 555 L 965.725 549 Z " fill="rgb(70,70,70)"/><rect x="951.725" y="539" width="6" height="12" transform="matrix(1,0,0,1,0,0)" fill="rgb(70,70,70)"/><rect x="1051.725" y="952" width="29" height="9" transform="matrix(1,0,0,1,0,0)" fill="rgb(70,70,70)"/><rect x="1071.725" y="812.5" width="45" height="9" transform="matrix(1,0,0,1,0,0)" fill="rgb(70,70,70)"/><rect x="1001.975" y="882.25" width="148.5" height="9" transform="matrix(0,-1,1,0,189.475,1962.975)" fill="rgb(70,70,70)"/><rect x="1050.725" y="993.902" width="43" height="9.098" transform="matrix(1,0,0,1,0,0)" fill="rgb(70,70,70)"/><rect x="1084.627" y="825" width="43" height="9.098" transform="matrix(1,0,0,1,0,0)" fill="rgb(70,70,70)"/><rect x="1000.176" y="909.451" width="178" height="9.098" transform="matrix(0,-1,1,0,175.176,2003.176)" fill="rgb(70,70,70)"/></g><g><rect x="1129.725" y="1006" width="16" height="53" transform="matrix(1,0,0,1,0,0)" fill="rgb(70,70,70)"/><rect x="1222.725" y="1006" width="16" height="53" transform="matrix(1,0,0,1,0,0)" fill="rgb(70,70,70)"/><rect x="1313.725" y="1006" width="16" height="53" transform="matrix(1,0,0,1,0,0)" fill="rgb(70,70,70)"/><rect x="1120.725" y="1057" width="33" height="7" transform="matrix(1,0,0,1,0,0)" fill="rgb(70,70,70)"/><rect x="1213.725" y="1057" width="33" height="7" transform="matrix(1,0,0,1,0,0)" fill="rgb(70,70,70)"/><rect x="1304.725" y="1057" width="33" height="7" transform="matrix(1,0,0,1,0,0)" fill="rgb(70,70,70)"/><rect x="1120.725" y="957" width="239.126" height="54" transform="matrix(1,0,0,1,0,0)" fill="rgb(70,70,70)"/><ellipse vector-effect="non-scaling-stroke" cx="1118.176047212943" cy="975" rx="9.450857904153054" ry="15" fill="rgb(70,70,70)"/><rect x="1108.725" y="824" width="52" height="58" transform="matrix(1,0,0,1,0,0)" fill="rgb(70,70,70)"/><path d="M 1117.57 849 L 1151.89 849 C 1156.769 849 1160.73 852.961 1160.73 857.84 L 1160.73 898.16 C 1160.73 903.039 1156.769 907 1151.89 907 L 1117.57 907 C 1112.691 907 1108.73 903.039 1108.73 898.16 L 1108.73 857.84 C 1108.73 852.961 1112.691 849 1117.57 849 Z" style="stroke:none;fill:#464646;stroke-miterlimit:10;"/><path d="M 1122.43 893 L 1149.03 893 C 1152.176 893 1154.73 895.554 1154.73 898.7 L 1154.73 933.3 C 1154.73 936.446 1152.176 939 1149.03 939 L 1122.43 939 C 1119.284 939 1116.73 936.446 1116.73 933.3 L 1116.73 898.7 C 1116.73 895.554 1119.284 893 1122.43 893 Z" style="stroke:none;fill:#464646;stroke-miterlimit:10;"/><rect x="1120.725" y="933" width="30" height="29" transform="matrix(1,0,0,1,0,0)" fill="rgb(70,70,70)"/><path d="M 1123.29 795 L 1146.17 795 C 1154.206 795 1160.73 801.524 1160.73 809.56 L 1160.73 838.44 C 1160.73 846.476 1154.206 853 1146.17 853 L 1123.29 853 C 1115.254 853 1108.73 846.476 1108.73 838.44 L 1108.73 809.56 C 1108.73 801.524 1115.254 795 1123.29 795 Z" style="stroke:none;fill:#464646;stroke-miterlimit:10;"/><path d="M 1181.73 927 L 1181.73 927 C 1185.593 927 1188.73 930.137 1188.73 934 L 1188.73 955 C 1188.73 958.863 1185.593 962 1181.73 962 L 1181.73 962 C 1177.867 962 1174.73 958.863 1174.73 955 L 1174.73 934 C 1174.73 930.137 1177.867 927 1181.73 927 Z" style="stroke:none;fill:#464646;stroke-miterlimit:10;"/><path d="M 1212.73 927 L 1212.73 927 C 1216.593 927 1219.73 930.137 1219.73 934 L 1219.73 955 C 1219.73 958.863 1216.593 962 1212.73 962 L 1212.73 962 C 1208.867 962 1205.73 958.863 1205.73 955 L 1205.73 934 C 1205.73 930.137 1208.867 927 1212.73 927 Z" style="stroke:none;fill:#464646;stroke-miterlimit:10;"/><path d="M 1244.73 927 L 1244.73 927 C 1248.593 927 1251.73 930.137 1251.73 934 L 1251.73 955 C 1251.73 958.863 1248.593 962 1244.73 962 L 1244.73 962 C 1240.867 962 1237.73 958.863 1237.73 955 L 1237.73 934 C 1237.73 930.137 1240.867 927 1244.73 927 Z" style="stroke:none;fill:#464646;stroke-miterlimit:10;"/><path d="M 1275.73 927 L 1275.73 927 C 1279.593 927 1282.73 930.137 1282.73 934 L 1282.73 955 C 1282.73 958.863 1279.593 962 1275.73 962 L 1275.73 962 C 1271.867 962 1268.73 958.863 1268.73 955 L 1268.73 934 C 1268.73 930.137 1271.867 927 1275.73 927 Z" style="stroke:none;fill:#464646;stroke-miterlimit:10;"/><path d="M 1307.73 927 L 1307.73 927 C 1311.593 927 1314.73 930.137 1314.73 934 L 1314.73 955 C 1314.73 958.863 1311.593 962 1307.73 962 L 1307.73 962 C 1303.867 962 1300.73 958.863 1300.73 955 L 1300.73 934 C 1300.73 930.137 1303.867 927 1307.73 927 Z" style="stroke:none;fill:#464646;stroke-miterlimit:10;"/><path d="M 1337.73 927 L 1337.73 927 C 1341.593 927 1344.73 930.137 1344.73 934 L 1344.73 955 C 1344.73 958.863 1341.593 962 1337.73 962 L 1337.73 962 C 1333.867 962 1330.73 958.863 1330.73 955 L 1330.73 934 C 1330.73 930.137 1333.867 927 1337.73 927 Z" style="stroke:none;fill:#464646;stroke-miterlimit:10;"/><path d=" M 1179.854 910 L 1184.038 910 L 1185.225 932 L 1178.225 932 L 1179.854 910 Z " fill="rgb(70,70,70)"/><path d=" M 1210.854 910 L 1215.038 910 L 1216.225 932 L 1209.225 932 L 1210.854 910 Z " fill="rgb(70,70,70)"/><path d=" M 1242.854 910 L 1247.038 910 L 1248.225 932 L 1241.225 932 L 1242.854 910 Z " fill="rgb(70,70,70)"/><path d=" M 1273.854 910 L 1278.038 910 L 1279.225 932 L 1272.225 932 L 1273.854 910 Z " fill="rgb(70,70,70)"/><path d=" M 1305.854 910 L 1310.038 910 L 1311.225 932 L 1304.225 932 L 1305.854 910 Z " fill="rgb(70,70,70)"/><path d=" M 1335.854 910 L 1340.038 910 L 1341.225 932 L 1334.225 932 L 1335.854 910 Z " fill="rgb(70,70,70)"/></g></g></svg>