<?xml version="1.0" encoding="UTF-8" standalone="no"?><!-- Generator: Gravit.io --><svg xmlns="http://www.w3.org/2000/svg" xmlns:xlink="http://www.w3.org/1999/xlink" style="isolation:isolate" viewBox="-437 965 50 50" width="50pt" height="50pt"><g><circle vector-effect="non-scaling-stroke" cx="-411.99999999999994" cy="990" r="25" fill="rgb(253,176,22)"/><g><path d=" M -403.504 983.257 C -402.057 984.735 -402.173 986.275 -403.859 987.869 L -405.552 1009.87 L -418.368 1009.87 L -420.229 987.876 C -421.783 986.398 -421.911 984.863 -420.619 983.263 L -421.188 976.547 L -402.988 976.547 L -403.504 983.257 Z " fill="rgb(253,176,22)" vector-effect="non-scaling-stroke" stroke-width="2" stroke="rgb(70,70,70)" stroke-linejoin="miter" stroke-linecap="square" stroke-miterlimit="3"/><path d=" M -406.08 981.193 L -406.233 983.607 C -405.251 984.824 -405.329 986.092 -406.474 987.404 L -407.623 1005.512 L -416.323 1005.512 L -417.586 987.41 C -418.641 986.193 -418.727 984.93 -417.851 983.612 L -418.023 981.14 L -406.08 981.193 Z " fill="rgb(253,176,22)" vector-effect="non-scaling-stroke" stroke-width="1" stroke="rgb(253,176,22)" stroke-linejoin="miter" stroke-linecap="square" stroke-miterlimit="3"/><circle vector-effect="non-scaling-stroke" cx="-414.78458735986635" cy="985.5181892354524" r="1.537987693484638" fill="rgb(70,70,70)"/><circle vector-effect="non-scaling-stroke" cx="-408.8838262946347" cy="985.5181892354524" r="1.537987693484638" fill="rgb(70,70,70)"/><path d=" M -414.785 991.157 C -412.811 992.535 -410.839 992.54 -408.884 991.157" fill="none" vector-effect="non-scaling-stroke" stroke-width="2" stroke="rgb(70,70,70)" stroke-linejoin="miter" stroke-linecap="square" stroke-miterlimit="3"/><path d=" M -404.014 973.719 C -403.901 970.13 -407.366 969.759 -409.909 971.49 C -411.403 970.012 -413.241 969.399 -415.292 971.42 C -417.551 970.299 -419.842 971.171 -419.906 973.719" fill="none" vector-effect="non-scaling-stroke" stroke-width="2" stroke="rgb(70,70,70)" stroke-linejoin="miter" stroke-linecap="square" stroke-miterlimit="3"/><line x1="-408.347" y1="1003.974" x2="-412" y2="1003.974" vector-effect="non-scaling-stroke" stroke-width="1" stroke="rgb(70,70,70)" stroke-linejoin="miter" stroke-linecap="square" stroke-miterlimit="3"/><line x1="-414.572" y1="1003.974" x2="-415.436" y2="1003.974" vector-effect="non-scaling-stroke" stroke-width="1" stroke="rgb(70,70,70)" stroke-linejoin="miter" stroke-linecap="square" stroke-miterlimit="3"/></g></g></svg>