<?xml version="1.0" encoding="UTF-8" standalone="no"?><!-- Generator: Gravit.io --><svg xmlns="http://www.w3.org/2000/svg" xmlns:xlink="http://www.w3.org/1999/xlink" style="isolation:isolate" viewBox="-560.149 139.803 1920 780.197" width="1920pt" height="780.197pt"><g><g><rect x="-560.149" y="803" width="49.874" height="21" transform="matrix(1,0,0,1,0,0)" fill="rgb(57,57,57)"/><path d=" M 545.725 319 C 564.538 319 575.725 324.563 575.725 339 L 596.725 339 C 596.725 314.25 583.475 298 545.725 298 L 545.725 319 Z " fill="rgb(57,57,57)"/><rect x="-713.775" y="553.5" width="444" height="21" transform="matrix(0,-1,1,0,-1055.775,72.225)" fill="rgb(57,57,57)"/><rect x="-456.275" y="298" width="1005" height="21" transform="matrix(1,0,0,1,0,0)" fill="rgb(57,57,57)"/><rect x="550.725" y="362" width="71" height="21" transform="matrix(0,1,-1,0,958.725,-213.725)" fill="rgb(57,57,57)"/><rect x="645.725" y="432" width="714.126" height="21" transform="matrix(1,0,0,1,0,0)" fill="rgb(57,57,57)"/><path d=" M 596.725 408 C 596.725 427.313 613.85 432 645.725 432 L 645.725 453 C 598.85 453 575.725 441 575.725 408 L 596.725 408 Z " fill="rgb(57,57,57)"/><path d=" M -512.275 803 C -503.462 803 -502.275 798.563 -502.275 784.874 L -481.275 784.874 C -481.275 814.313 -480.775 824 -512.275 824 L -512.275 803 Z " fill="rgb(57,57,57)"/><path d=" M -481.275 345 C -481.275 327.75 -470.837 319 -452.275 319 L -452.275 298 C -485.65 298 -502.275 313.125 -502.275 345 L -481.275 345 Z " fill="rgb(57,57,57)"/></g><g><rect x="476.725" y="139.803" width="26" height="511.197" transform="matrix(1,0,0,1,0,0)" fill="rgb(57,57,57)"/><rect x="687.725" y="139.803" width="26" height="780.197" transform="matrix(1,0,0,1,0,0)" fill="rgb(57,57,57)"/><rect x="51.725" y="139.803" width="26" height="780.197" transform="matrix(1,0,0,1,0,0)" fill="rgb(57,57,57)"/><rect x="-210.275" y="139.803" width="26" height="780.197" transform="matrix(1,0,0,1,0,0)" fill="rgb(57,57,57)"/><path d=" M -352.275 435 C -338.931 435 -332.275 434.25 -332.275 420 L -306.275 420 C -306.275 450.422 -313.619 461 -352.275 461 L -352.275 435 Z " fill="rgb(57,57,57)"/><path d=" M -306.275 248 C -306.275 236.906 -301.619 232 -289.275 232 L -289.275 206 C -319.337 206 -332.275 220.125 -332.275 248 L -306.275 248 Z " fill="rgb(57,57,57)"/><rect x="88.725" y="-174" width="26" height="786" transform="matrix(0,1,-1,0,320.725,117.275)" fill="rgb(57,57,57)"/><rect x="-467.212" y="342.063" width="26" height="211.874" transform="matrix(0,1,-1,0,-6.212,902.212)" fill="rgb(57,57,57)"/><rect x="-332.275" y="247" width="26" height="175" transform="matrix(-1,0,0,-1,-638.55,669)" fill="rgb(57,57,57)"/></g><g><rect x="1192.288" y="66.437" width="26" height="309.126" transform="matrix(0,1,-1,0,1426.288,-984.288)" fill="rgb(57,57,57)"/><path d=" M 869.725 341.803 C 869.725 327.75 875.975 316 889.529 316 L 889.529 290 C 856.975 290 843.725 306.5 843.725 341.803 L 869.725 341.803 Z " fill="rgb(57,57,57)"/><path d=" M 1037.725 271 C 1037.725 285.053 1035.444 290 1020.725 290 L 1020.725 316 C 1061.038 316 1063.725 307.5 1063.725 271 L 1037.725 271 Z " fill="rgb(57,57,57)"/><rect x="1037.725" y="139.803" width="26" height="134.197" transform="matrix(-1,0,0,-1,2101.45,413.803)" fill="rgb(57,57,57)"/><rect x="940.225" y="235.5" width="26" height="135" transform="matrix(0,-1,1,0,650.225,1256.225)" fill="rgb(57,57,57)"/><rect x="843.725" y="338" width="26" height="393" transform="matrix(1,0,0,1,0,0)" fill="rgb(57,57,57)"/></g><rect x="1126.725" y="139.803" width="26" height="674.197" transform="matrix(1,0,0,1,0,0)" fill="rgb(57,57,57)"/></g></svg>