<?xml version="1.0" encoding="UTF-8" standalone="no"?><!-- Generator: Gravit.io --><svg xmlns="http://www.w3.org/2000/svg" xmlns:xlink="http://www.w3.org/1999/xlink" style="isolation:isolate" viewBox="-56.055 290.637 94.555 181.393" width="94.555pt" height="181.393pt"><g><path d=" M 26.795 353.098 C 32.855 359.286 32.37 365.735 25.309 372.411 L 18.223 464.53 L -35.441 464.53 L -43.234 372.441 C -49.74 366.252 -50.274 359.824 -44.868 353.124 L -47.248 325.002 L 28.956 325.002 L 26.795 353.098 Z " fill="rgb(70,70,70)" vector-effect="non-scaling-stroke" stroke-width="5" stroke="rgb(232,232,232)" stroke-linejoin="miter" stroke-linecap="square" stroke-miterlimit="3"/><path d=" M 16.01 344.457 L 15.368 354.567 C 19.482 359.661 19.153 364.968 14.36 370.463 L 9.55 446.284 L -26.877 446.284 L -32.166 370.487 C -36.582 365.394 -36.945 360.103 -33.275 354.588 L -33.998 344.234 L 16.01 344.457 Z " fill="rgb(253,176,22)" vector-effect="non-scaling-stroke" stroke-width="5" stroke="rgb(253,176,22)" stroke-linejoin="miter" stroke-linecap="square" stroke-miterlimit="3"/><circle vector-effect="non-scaling-stroke" cx="-20.43698384556538" cy="362.56757948116103" r="6.439731822242411" fill="rgb(70,70,70)"/><circle vector-effect="non-scaling-stroke" cx="4.2701831676665005" cy="362.56757948116103" r="6.439731822242411" fill="rgb(70,70,70)"/><path d=" M -20.437 386.18 C -12.172 391.946 -3.914 391.967 4.27 386.18" fill="none" vector-effect="non-scaling-stroke" stroke-width="5" stroke="rgb(70,70,70)" stroke-linejoin="miter" stroke-linecap="square" stroke-miterlimit="3"/><path d=" M 24.663 315.343 C 25.132 300.317 10.627 296.583 -0.023 303.828 C -6.278 297.64 -13.975 295.074 -22.562 303.537 C -32.02 298.841 -41.613 304.677 -41.881 315.343" fill="none" vector-effect="non-scaling-stroke" stroke-width="5" stroke="rgb(232,232,232)" stroke-linejoin="miter" stroke-linecap="square" stroke-miterlimit="3"/><line x1="6.517" y1="439.844" x2="-15.049" y2="439.844" vector-effect="non-scaling-stroke" stroke-width="3" stroke="rgb(70,70,70)" stroke-linejoin="miter" stroke-linecap="square" stroke-miterlimit="3"/><line x1="-22.562" y1="439.844" x2="-23.166" y2="439.844" vector-effect="non-scaling-stroke" stroke-width="3" stroke="rgb(70,70,70)" stroke-linejoin="miter" stroke-linecap="square" stroke-miterlimit="3"/></g></svg>